# xmcd CD database file generated by Grip 3.3.1
# 
# Track frame offsets:
#       150
#       18321
#       49230
#       66873
#       83053
#       98215
#       111511
#       124433
#       144485
#       163898
#       176699
#       189951
#       211969
#       225192
#       240211
#       258030
#       275003
#       292580
#       305642
#       324717
# 
# Disc length: 4561 seconds
# 
# Revision: 1
# Processed by: cddbd v1.5.2PL0 Copyright (c) Steve Scherf et al.
# Submitted via: Grip 3.3.1
# 
DISCID=1811cf14
DTITLE=Various Artist - Motown 50 CD 2
DYEAR=2008
DGENRE=Other
TTITLE0=Stevie Wonder - Superstition
TTITLE1=The Temptations - Papa Was A Rolling Stone
TTITLE2=Marvin Gaye - What's Going On
TTITLE3=Commodores - Brick House
TTITLE4=Edwin Starr - War
TTITLE5=The Temptations - My Girl
TTITLE6=Smokey Robinson and The Miracles - The Tracks Of My Tears
TTITLE7=Lionel Richie and Diana Ross - Endless Love
TTITLE8=Commodores - Easy
TTITLE9=Diana Ross and The Supremes - Reflections
TTITLE10=Four Tops - Reach Out, I'll Be There
TTITLE11=Marvin Gaye - Let's Get It On
TTITLE12=Jimmy Ruffin - What Becomes Of The Broken Hearted
TTITLE13=Michael Jackson - Got To Be There
TTITLE14=Smokey Robinson - Being With You
TTITLE15=Diana Ross - I'm Still Waiting
TTITLE16=Stevie Wonder - Sir Duke
TTITLE17=The Miracles - Love Machine
TTITLE18=Lionel Richie - All Night Long (All Night)
TTITLE19=Diana Ross - Love Hangover
EXTD=
EXTT0=
EXTT1=
EXTT2=
EXTT3=
EXTT4=
EXTT5=
EXTT6=
EXTT7=
EXTT8=
EXTT9=
EXTT10=
EXTT11=
EXTT12=
EXTT13=
EXTT14=
EXTT15=
EXTT16=
EXTT17=
EXTT18=
EXTT19=
PLAYORDER=
